<svg width="18" height="17" viewBox="0 0 18 17" fill="none" xmlns="http://www.w3.org/2000/svg">
<path d="M7.4783 16.6667C7.18316 16.6667 6.93576 16.5668 6.73611 16.3672C6.53646 16.1675 6.43663 15.9201 6.43663 15.625V9.375L0.212674 1.43229C-0.030382 1.13715 -0.0651042 0.824653 0.108507 0.494792C0.282118 0.164931 0.551215 0 0.915799 0H16.1241C16.4887 0 16.7578 0.164931 16.9314 0.494792C17.105 0.824653 17.0703 1.13715 16.8273 1.43229L10.6033 9.375V15.625C10.6033 15.9201 10.5035 16.1675 10.3038 16.3672C10.1042 16.5668 9.85677 16.6667 9.56163 16.6667H7.4783ZM8.51997 9.47917L14.77 1.5625H2.26997L8.51997 9.47917Z" fill="white"/>
</svg>
