<svg width="29" height="29" viewBox="0 0 29 29" fill="none" xmlns="http://www.w3.org/2000/svg">
<g clip-path="url(#clip0_533_368)">
<path d="M28.4026 2.9861H25.3472C25.2007 2.98501 25.0588 3.03783 24.9487 3.13452C24.8386 3.23121 24.7679 3.36501 24.75 3.51046L24.3534 6.71635C24.3176 7.0054 24.1774 7.2714 23.9592 7.46431C23.741 7.65722 23.4598 7.76376 23.1686 7.76388H2.72205C2.44114 7.76404 2.16421 7.83025 1.9136 7.95716C1.663 8.08407 1.44575 8.26813 1.27939 8.49448C1.11303 8.72082 1.00222 8.98312 0.95591 9.26018C0.909602 9.53725 0.929089 9.82132 1.0128 10.0895L2.87852 16.0617C2.99234 16.4263 3.21968 16.7449 3.52738 16.9712C3.83508 17.1975 4.20703 17.3195 4.58897 17.3194H21.8332C22.1499 17.3194 22.4538 17.4453 22.6778 17.6693C22.9018 17.8933 23.0276 18.1971 23.0276 18.5139C23.0276 18.8307 22.9018 19.1345 22.6778 19.3585C22.4538 19.5825 22.1499 19.7083 21.8332 19.7083H5.11094" stroke="#048181" stroke-width="2" stroke-linecap="round" stroke-linejoin="round"/>
<path d="M23.6261 10.1528L23.0981 14.9043" stroke="#048181" stroke-width="2" stroke-linecap="round" stroke-linejoin="round"/>
<path d="M5.70947 23.8888C5.70947 24.364 5.89824 24.8197 6.23424 25.1557C6.57024 25.4917 7.02596 25.6805 7.50114 25.6805C7.97632 25.6805 8.43204 25.4917 8.76804 25.1557C9.10404 24.8197 9.29281 24.364 9.29281 23.8888C9.29281 23.4137 9.10404 22.9579 8.76804 22.6219C8.43204 22.2859 7.97632 22.0972 7.50114 22.0972C7.02596 22.0972 6.57024 22.2859 6.23424 22.6219C5.89824 22.9579 5.70947 23.4137 5.70947 23.8888Z" stroke="#048181" stroke-width="2" stroke-linecap="round" stroke-linejoin="round"/>
<path d="M18.8484 23.8888C18.8484 24.1241 18.8947 24.3571 18.9848 24.5745C19.0748 24.7919 19.2068 24.9894 19.3732 25.1557C19.5395 25.3221 19.737 25.4541 19.9544 25.5441C20.1718 25.6342 20.4048 25.6805 20.6401 25.6805C20.8753 25.6805 21.1083 25.6342 21.3257 25.5441C21.5431 25.4541 21.7406 25.3221 21.907 25.1557C22.0733 24.9894 22.2053 24.7919 22.2953 24.5745C22.3854 24.3571 22.4317 24.1241 22.4317 23.8888C22.4317 23.4137 22.243 22.9579 21.907 22.6219C21.571 22.2859 21.1152 22.0972 20.6401 22.0972C20.1649 22.0972 19.7092 22.2859 19.3732 22.6219C19.0372 22.9579 18.8484 23.4137 18.8484 23.8888Z" stroke="#048181" stroke-width="2" stroke-linecap="round" stroke-linejoin="round"/>
</g>
<defs>
<clipPath id="clip0_533_368">
<rect width="28.6667" height="28.6667" fill="white" transform="translate(0.333252)"/>
</clipPath>
</defs>
</svg>
